Coordinates
version=1
nRows=7
nColumns=40
inDegrees=yes

Units are S.I. units (second, meters, Newtons, ...)
If the header above contains a line with 'inDegrees', this indicates whether rotational values are in degrees (yes) or radians (no).

endheader
time	pelvis_tilt	pelvis_list	pelvis_rotation	pelvis_tx	pelvis_ty	pelvis_tz	hip_flexion_r	hip_adduction_r	hip_rotation_r	knee_angle_r	knee_angle_r_beta	ankle_angle_r	subtalar_angle_r	mtp_angle_r	hip_flexion_l	hip_adduction_l	hip_rotation_l	knee_angle_l	knee_angle_l_beta	ankle_angle_l	subtalar_angle_l	mtp_angle_l	lumbar_extension	lumbar_bending	lumbar_rotation	arm_flex_r	arm_add_r	arm_rot_r	elbow_flex_r	pro_sup_r	wrist_flex_r	wrist_dev_r	arm_flex_l	arm_add_l	arm_rot_l	elbow_flex_l	pro_sup_l	wrist_flex_l	wrist_dev_l
      0.00000000	     -0.13928168	     14.48848781	    -80.49725373	      0.14403329	      0.99106333	      0.42910042	     10.95923489	     -3.96840794	     -3.39050940	      1.44040315	      0.02513978	     -7.79832383	      0.00000000	      0.00000000	     19.56033738	     -6.95613078	    -27.75897719	     18.30515678	      0.31948526	     -4.52286929	      0.00000000	      0.00000000	     10.92507297	     -0.51854672	      9.78860494	     -4.49607920	    -12.67015623	     18.18451888	     36.53016997	     51.09039422	      0.00000000	      0.00000000	      8.06542341	    -26.42970443	      7.50081961	    113.65153597	     51.45475497	      0.00000000	      0.00000000
      0.01666700	      0.20390561	     12.64103440	    -82.23452717	      0.14151905	      0.99541594	      0.42679105	      9.46720440	     -3.98863015	     -1.85979728	      1.58668787	      0.02769293	     -8.09317827	      0.00000000	      0.00000000	     18.10509825	     -8.14206737	    -29.05055369	     19.72245416	      0.34422176	     -3.30476054	      0.00000000	      0.00000000	      8.60780945	     -0.10264961	     10.53390707	     -2.79733385	    -13.08455561	     20.46053536	     35.73647656	     50.72343019	      0.00000000	      0.00000000	      8.46682229	    -25.30652448	      6.48028530	    114.18583383	     54.66257053	      0.00000000	      0.00000000
      0.03333300	      0.07077955	     12.02530686	    -82.67515627	      0.14070257	      0.99619171	      0.42684281	      8.86206981	     -3.68451832	     -1.46979407	      1.50084871	      0.02619475	     -7.57342755	      0.00000000	      0.00000000	     17.81381104	     -9.11770031	    -29.04111832	     20.74216278	      0.36201903	     -2.60484292	      0.00000000	      0.00000000	      7.98054503	      0.30249688	     10.82253467	     -2.74667196	    -13.06687666	     20.18996740	     35.93689219	     50.57471135	      0.00000000	      0.00000000	      9.21169163	    -24.94559052	      6.71417912	    114.39459454	     54.53274702	      0.00000000	      0.00000000
      0.05000000	      0.18153475	     11.18523634	    -83.55833987	      0.13982516	      0.99759545	      0.42465615	      8.21268285	     -3.63546921	     -0.89479588	      1.43281224	      0.02500729	     -7.57305364	      0.00000000	      0.00000000	     17.33891828	     -9.81356546	    -27.95454261	     21.52967445	      0.37576371	     -3.00681410	      0.00000000	      0.00000000	      6.91152885	      0.57401365	     10.82544719	     -1.66512912	    -13.46115639	     21.68160217	     35.72589409	     50.55802326	      0.00000000	      0.00000000	     10.26788700	    -24.67122313	      6.88805818	    115.06523656	     54.05385496	      0.00000000	      0.00000000
      0.06666700	      0.33695229	     10.90745946	    -83.91165900	      0.13952566	      0.99753175	      0.42314482	      8.08335300	     -3.75415572	     -0.28232639	      1.39679524	      0.02437868	     -7.23144835	      0.00000000	      0.00000000	     17.59413898	    -10.36886396	    -26.03561249	     22.61982210	      0.39479037	     -3.05514251	      0.00000000	      0.00000000	      6.48954097	      0.60154766	     10.92070046	     -1.28562110	    -13.59472447	     22.04371274	     35.81975535	     50.23391979	      0.00000000	      0.00000000	     11.94972640	    -24.37553286	      7.00856396	    116.34966753	     54.21840494	      0.00000000	      0.00000000
      0.08333300	      0.41017922	     10.75387883	    -84.79929488	      0.13905413	      0.99733829	      0.42082346	      8.10577176	     -3.77018516	      0.35347988	      1.24293851	      0.02169337	     -7.26529120	      0.00000000	      0.00000000	     17.83436301	    -11.17326440	    -24.47585645	     23.67707717	      0.41324295	     -3.04464962	      0.00000000	      0.00000000	      6.13811157	      0.81893819	     11.26181430	     -0.56730709	    -13.99337299	     23.17067230	     35.72127080	     50.14391572	      0.00000000	      0.00000000	     13.32182625	    -24.63377543	      7.65868621	    118.16901298	     54.30678534	      0.00000000	      0.00000000
      0.10000000	      0.43322055	     10.82163382	    -85.33515473	      0.13924141	      0.99660888	      0.42021016	      8.27463555	     -3.81945862	      0.47568428	      1.13584593	      0.01982425	     -7.21704038	      0.00000000	      0.00000000	     17.79582690	    -11.86048676	    -23.62640153	     23.56403249	      0.41126995	     -2.89706191	      0.00000000	      0.00000000	      6.18507251	      0.99572427	     11.43701019	     -0.42734079	    -14.12894030	     23.27867354	     35.80213699	     50.13691265	      0.00000000	      0.00000000	     14.63860011	    -24.90018799	      8.38224381	    120.36736543	     54.60712760	      0.00000000	      0.00000000
